<?xml version="1.0" standalone="no"?>
<!DOCTYPE svg PUBLIC "-//W3C//DTD SVG 20010904//EN"
 "http://www.w3.org/TR/2001/REC-SVG-20010904/DTD/svg10.dtd">
<svg version="1.0" xmlns="http://www.w3.org/2000/svg"
 width="180.000000pt" height="180.000000pt" viewBox="0 0 180.000000 180.000000"
 preserveAspectRatio="xMidYMid meet">

<g transform="translate(0.000000,180.000000) scale(0.100000,-0.100000)"
fill="#000000" stroke="none">
<path d="M891 1564 c0 -11 3 -14 6 -6 3 7 2 16 -1 19 -3 4 -6 -2 -5 -13z"/>
<path d="M912 1560 c0 -14 2 -19 5 -12 2 6 2 18 0 25 -3 6 -5 1 -5 -13z"/>
<path d="M1014 1508 l-19 -23 23 19 c21 18 27 26 19 26 -2 0 -12 -10 -23 -22z"/>
<path d="M740 1480 c8 -5 22 -9 30 -9 10 0 8 3 -5 9 -27 12 -43 12 -25 0z"/>
<path d="M1054 1468 l-19 -23 23 19 c21 18 27 26 19 26 -2 0 -12 -10 -23 -22z"/>
<path d="M1092 1430 c0 -14 2 -19 5 -12 2 6 2 18 0 25 -3 6 -5 1 -5 -13z"/>
<path d="M842 1354 c-51 -18 -118 -83 -130 -128 -10 -36 0 -73 26 -92 20 -16
62 -18 62 -4 0 18 27 10 55 -16 24 -22 27 -31 23 -74 -4 -41 -2 -49 14 -53 31
-9 60 4 52 22 -20 46 -16 70 14 101 25 24 36 29 60 24 43 -9 70 13 66 51 -10
90 -16 114 -30 108 -8 -3 -14 1 -14 10 0 20 -65 58 -77 46 -6 -6 -15 -4 -23 6
-15 19 -42 18 -98 -1z m38 -54 c0 -5 -4 -10 -10 -10 -5 0 -10 5 -10 10 0 6 5
10 10 10 6 0 10 -4 10 -10z m110 0 c0 -5 -4 -10 -10 -10 -5 0 -10 5 -10 10 0
6 5 10 10 10 6 0 10 -4 10 -10z m-16 -91 c-3 -5 -10 -7 -15 -3 -5 3 -7 10 -3
15 3 5 10 7 15 3 5 -3 7 -10 3 -15z m-154 -17 c0 -13 -12 -22 -22 -16 -10 6
-1 24 13 24 5 0 9 -4 9 -8z m109 -63 c-21 -15 -25 -16 -46 -2 -30 20 -29 27 1
19 14 -3 27 -2 31 4 3 5 13 6 22 3 13 -5 12 -9 -8 -24z"/>
<path d="M640 1339 c0 -5 9 -9 20 -9 11 0 20 2 20 4 0 2 -9 6 -20 9 -11 3 -20
1 -20 -4z"/>
<path d="M1139 1323 c-13 -17 -13 -17 6 -3 11 8 22 16 24 17 2 2 0 3 -6 3 -6
0 -17 -8 -24 -17z"/>
<path d="M626 1301 c-3 -4 6 -6 19 -3 14 2 25 6 25 8 0 8 -39 4 -44 -5z"/>
<path d="M1160 1255 c-13 -14 -19 -25 -14 -25 8 1 50 50 41 50 -2 0 -14 -11
-27 -25z"/>
<path d="M1140 1110 c8 -5 22 -9 30 -9 10 0 8 3 -5 9 -27 12 -43 12 -25 0z"/>
<path d="M1134 1056 c11 -9 24 -16 30 -16 12 0 7 5 -24 19 -24 11 -24 11 -6
-3z"/>
<path d="M1110 1036 c0 -2 9 -6 20 -9 11 -3 18 -1 14 4 -5 9 -34 13 -34 5z"/>
<path d="M669 1003 c-13 -17 -13 -17 6 -3 11 8 22 16 24 17 2 2 0 3 -6 3 -6 0
-17 -8 -24 -17z"/>
<path d="M1100 990 c-18 -12 -2 -12 25 0 13 6 15 9 5 9 -8 0 -22 -4 -30 -9z"/>
<path d="M1071 967 c2 -1 13 -9 24 -17 19 -14 19 -14 6 3 -7 9 -18 17 -24 17
-6 0 -8 -1 -6 -3z"/>
<path d="M736 933 c-6 -14 -5 -15 5 -6 7 7 10 15 7 18 -3 3 -9 -2 -12 -12z"/>
<path d="M1055 920 c10 -11 20 -20 23 -20 3 0 -3 9 -13 20 -10 11 -20 20 -23
20 -3 0 3 -9 13 -20z"/>
<path d="M774 888 l-19 -23 23 19 c21 18 27 26 19 26 -2 0 -12 -10 -23 -22z"/>
<path d="M991 887 c2 -1 13 -9 24 -17 19 -14 19 -14 6 3 -7 9 -18 17 -24 17
-6 0 -8 -1 -6 -3z"/>
<path d="M821 870 c0 -8 4 -22 9 -30 12 -18 12 -2 0 25 -6 13 -9 15 -9 5z"/>
<path d="M390 730 c0 -16 4 -30 8 -30 5 0 7 14 4 30 -2 17 -6 30 -8 30 -2 0
-4 -13 -4 -30z"/>
<path d="M428 730 c-3 -16 -1 -30 4 -30 4 0 8 14 8 30 0 17 -2 30 -4 30 -2 0
-6 -13 -8 -30z"/>
<path d="M491 729 c1 -27 3 -29 6 -10 l5 25 19 -25 c10 -13 19 -19 19 -13 0 6
-11 21 -25 34 l-25 23 1 -34z"/>
<path d="M602 730 c0 -19 2 -27 5 -17 2 9 2 25 0 35 -3 9 -5 1 -5 -18z"/>
<path d="M661 755 c0 -5 6 -21 13 -34 12 -21 14 -22 20 -5 4 10 4 15 0 11 -5
-4 -14 3 -21 15 -7 13 -12 19 -12 13z"/>
<path d="M760 730 c0 -16 2 -30 4 -30 2 0 6 14 8 30 3 17 1 30 -4 30 -4 0 -8
-13 -8 -30z"/>
<path d="M850 728 c0 -26 3 -30 11 -18 8 11 12 12 16 3 2 -7 9 -13 14 -13 6 0
7 6 2 13 -4 6 -8 19 -8 27 0 8 -8 16 -17 18 -14 3 -18 -3 -18 -30z m30 12 c0
-5 -4 -10 -10 -10 -5 0 -10 5 -10 10 0 6 5 10 10 10 6 0 10 -4 10 -10z"/>
<path d="M955 750 c-3 -5 3 -18 15 -30 11 -11 20 -16 20 -11 0 5 -7 14 -15 21
-13 11 -13 15 -3 21 9 6 9 9 1 9 -6 0 -14 -4 -18 -10z"/>
<path d="M1042 730 c0 -19 2 -27 5 -17 2 9 2 25 0 35 -3 9 -5 1 -5 -18z"/>
<path d="M1112 730 c0 -19 2 -27 5 -17 2 9 2 25 0 35 -3 9 -5 1 -5 -18z"/>
<path d="M1140 745 c7 -8 10 -22 6 -30 -3 -9 -2 -13 4 -10 16 10 12 42 -6 49
-14 5 -15 4 -4 -9z"/>
<path d="M1226 745 c-3 -10 -4 -20 -1 -23 3 -3 5 1 6 9 0 8 5 3 10 -10 5 -13
12 -21 15 -18 3 3 -1 17 -9 32 -12 24 -15 25 -21 10z"/>
<path d="M1317 753 c-11 -10 -8 -53 3 -53 6 0 10 14 10 30 0 31 -2 35 -13 23z"/>
<path d="M1349 748 c7 -10 11 -25 7 -33 -3 -9 -2 -13 4 -10 15 10 12 31 -7 46
-16 13 -17 12 -4 -3z"/>
<path d="M223 623 c-8 -22 -37 -97 -63 -163 -16 -40 -17 -50 -6 -50 8 0 20 16
26 35 11 34 13 35 60 35 47 0 49 -1 60 -35 9 -27 17 -35 35 -35 24 0 24 0 -21
106 -24 58 -47 110 -50 115 -9 15 -34 10 -41 -8z m35 -76 c16 -46 16 -47 -18
-47 -33 0 -35 3 -19 49 14 40 22 39 37 -2z"/>
<path d="M390 545 c0 -90 2 -98 26 -121 21 -22 31 -25 62 -20 20 4 52 7 70 6
l32 0 0 116 c0 113 -1 115 -22 112 -20 -3 -21 -8 -19 -81 3 -94 -13 -127 -59
-127 -40 0 -50 27 -50 131 0 72 -2 79 -20 79 -19 0 -20 -7 -20 -95z"/>
<path d="M641 621 c-34 -34 -27 -52 47 -109 51 -41 58 -78 15 -88 -17 -5 -37
-1 -55 9 -26 15 -28 15 -28 -2 0 -33 89 -43 128 -15 18 12 22 24 20 52 -2 29
-11 43 -48 70 -54 41 -61 75 -17 80 16 2 35 -2 44 -9 13 -11 15 -10 12 6 -6
30 -90 34 -118 6z"/>
<path d="M800 625 c-11 -13 -6 -15 34 -15 l47 0 -3 -100 c-3 -98 -3 -100 20
-100 21 0 22 3 22 100 0 99 0 100 24 100 31 0 56 10 56 21 0 5 -42 9 -94 9
-71 0 -97 -4 -106 -15z"/>
<path d="M1040 639 c-1 -2 -2 -55 -3 -117 -2 -110 -2 -112 21 -112 20 0 22 5
22 50 0 35 4 50 13 50 8 0 28 -22 46 -50 27 -42 37 -50 62 -50 l30 0 -38 48
c-21 26 -44 52 -51 57 -11 9 -9 13 11 22 35 16 44 50 21 74 -16 16 -133 40
-134 28z m74 -29 c32 -12 36 -54 7 -70 -34 -18 -41 -11 -41 35 0 25 2 45 4 45
3 0 16 -4 30 -10z"/>
<path d="M1331 618 c-5 -13 -25 -63 -45 -112 -42 -104 -40 -96 -23 -96 7 0 19
16 26 35 12 33 15 35 57 35 41 0 46 -3 61 -35 12 -25 23 -35 39 -35 22 0 21 4
-26 113 -50 114 -72 139 -89 95z m35 -74 c18 -43 16 -46 -24 -42 l-30 3 15 38
c8 20 17 37 20 37 2 0 11 -16 19 -36z"/>
<path d="M1500 526 l0 -116 80 0 c57 0 80 4 80 13 0 9 -17 11 -61 9 l-60 -4 2
104 c2 98 1 103 -20 106 -20 3 -21 0 -21 -112z"/>
</g>
</svg>
